<mxfile host="app.diagrams.net" modified="2022-07-30T07:19:04.826Z" agent="5.0 (Windows NT 10.0; Win64; x64) AppleWebKit/537.36 (KHTML, like Gecko) Chrome/103.0.0.0 Safari/537.36" etag="gS7BfqG6e8SW_L5Xb8Su" version="20.2.2" type="github">
  <diagram id="BmVjxv_eLRpQG7ZIDWyt" name="第 1 页">
    <mxGraphModel dx="782" dy="1605" grid="1" gridSize="10" guides="1" tooltips="1" connect="1" arrows="1" fold="1" page="1" pageScale="1" pageWidth="827" pageHeight="1169" math="0" shadow="0">
      <root>
        <mxCell id="0" />
        <mxCell id="1" parent="0" />
        <mxCell id="mjfKpfiPbVF0Odg-zGbk-2" style="edgeStyle=orthogonalEdgeStyle;rounded=0;orthogonalLoop=1;jettySize=auto;html=1;exitX=1;exitY=0.5;exitDx=0;exitDy=0;entryX=0;entryY=0.5;entryDx=0;entryDy=0;" edge="1" parent="1" source="mjfKpfiPbVF0Odg-zGbk-1" target="mjfKpfiPbVF0Odg-zGbk-3">
          <mxGeometry relative="1" as="geometry">
            <mxPoint x="210" y="170" as="targetPoint" />
          </mxGeometry>
        </mxCell>
        <mxCell id="mjfKpfiPbVF0Odg-zGbk-1" value="bindQuery" style="rounded=0;whiteSpace=wrap;html=1;" vertex="1" parent="1">
          <mxGeometry y="110" width="80" height="60" as="geometry" />
        </mxCell>
        <mxCell id="mjfKpfiPbVF0Odg-zGbk-3" value="根据PIN查Customer数据(包含绑定和未绑定)" style="rounded=0;whiteSpace=wrap;html=1;" vertex="1" parent="1">
          <mxGeometry x="110" y="110" width="100" height="60" as="geometry" />
        </mxCell>
        <mxCell id="mjfKpfiPbVF0Odg-zGbk-5" value="是否查到Customer" style="rhombus;whiteSpace=wrap;html=1;" vertex="1" parent="1">
          <mxGeometry x="240" y="100" width="80" height="80" as="geometry" />
        </mxCell>
        <mxCell id="mjfKpfiPbVF0Odg-zGbk-6" value="" style="endArrow=classic;html=1;rounded=0;exitX=1;exitY=0.5;exitDx=0;exitDy=0;entryX=0;entryY=0.5;entryDx=0;entryDy=0;" edge="1" parent="1" source="mjfKpfiPbVF0Odg-zGbk-3" target="mjfKpfiPbVF0Odg-zGbk-5">
          <mxGeometry width="50" height="50" relative="1" as="geometry">
            <mxPoint x="380" y="230" as="sourcePoint" />
            <mxPoint x="430" y="180" as="targetPoint" />
          </mxGeometry>
        </mxCell>
        <mxCell id="mjfKpfiPbVF0Odg-zGbk-8" value="根据phoneNo查绑定的数据" style="rounded=0;whiteSpace=wrap;html=1;" vertex="1" parent="1">
          <mxGeometry x="360" y="170" width="150" height="60" as="geometry" />
        </mxCell>
        <mxCell id="mjfKpfiPbVF0Odg-zGbk-21" value="" style="endArrow=classic;html=1;rounded=0;exitX=0.5;exitY=0;exitDx=0;exitDy=0;entryX=0;entryY=0.5;entryDx=0;entryDy=0;" edge="1" parent="1" source="mjfKpfiPbVF0Odg-zGbk-5" target="mjfKpfiPbVF0Odg-zGbk-28">
          <mxGeometry relative="1" as="geometry">
            <mxPoint x="380" y="120" as="sourcePoint" />
            <mxPoint x="440" y="120" as="targetPoint" />
          </mxGeometry>
        </mxCell>
        <mxCell id="mjfKpfiPbVF0Odg-zGbk-22" value="是" style="edgeLabel;resizable=0;html=1;align=center;verticalAlign=middle;" connectable="0" vertex="1" parent="mjfKpfiPbVF0Odg-zGbk-21">
          <mxGeometry relative="1" as="geometry" />
        </mxCell>
        <mxCell id="mjfKpfiPbVF0Odg-zGbk-26" value="" style="endArrow=classic;html=1;rounded=0;exitX=0.5;exitY=1;exitDx=0;exitDy=0;" edge="1" parent="1" source="mjfKpfiPbVF0Odg-zGbk-5">
          <mxGeometry relative="1" as="geometry">
            <mxPoint x="380" y="180" as="sourcePoint" />
            <mxPoint x="360" y="180" as="targetPoint" />
          </mxGeometry>
        </mxCell>
        <mxCell id="mjfKpfiPbVF0Odg-zGbk-27" value="否" style="edgeLabel;resizable=0;html=1;align=center;verticalAlign=middle;" connectable="0" vertex="1" parent="mjfKpfiPbVF0Odg-zGbk-26">
          <mxGeometry relative="1" as="geometry" />
        </mxCell>
        <mxCell id="mjfKpfiPbVF0Odg-zGbk-28" value="DB中的phoneNo&lt;br&gt;和request&amp;nbsp;PhoneNo&lt;br&gt;是否一致" style="rhombus;whiteSpace=wrap;html=1;" vertex="1" parent="1">
          <mxGeometry x="360" y="40" width="150" height="120" as="geometry" />
        </mxCell>
        <mxCell id="mjfKpfiPbVF0Odg-zGbk-32" value="返回：SUC" style="rounded=0;whiteSpace=wrap;html=1;" vertex="1" parent="1">
          <mxGeometry x="690" y="80" width="120" height="60" as="geometry" />
        </mxCell>
        <mxCell id="mjfKpfiPbVF0Odg-zGbk-33" value="是" style="endArrow=classic;html=1;rounded=0;exitX=0.5;exitY=0;exitDx=0;exitDy=0;entryX=0;entryY=0.5;entryDx=0;entryDy=0;" edge="1" parent="1" source="mjfKpfiPbVF0Odg-zGbk-28">
          <mxGeometry width="50" height="50" relative="1" as="geometry">
            <mxPoint x="500" y="50" as="sourcePoint" />
            <mxPoint x="560" y="40" as="targetPoint" />
            <Array as="points">
              <mxPoint x="500" y="40" />
            </Array>
          </mxGeometry>
        </mxCell>
        <mxCell id="mjfKpfiPbVF0Odg-zGbk-34" value="是否&lt;br&gt;已经绑定" style="rhombus;whiteSpace=wrap;html=1;" vertex="1" parent="1">
          <mxGeometry x="560" width="80" height="80" as="geometry" />
        </mxCell>
        <mxCell id="mjfKpfiPbVF0Odg-zGbk-35" value="返回：&quot;E03&quot;,&quot;会员已被绑定&quot;" style="rounded=0;whiteSpace=wrap;html=1;" vertex="1" parent="1">
          <mxGeometry x="690" width="120" height="60" as="geometry" />
        </mxCell>
        <mxCell id="mjfKpfiPbVF0Odg-zGbk-36" value="是" style="endArrow=classic;html=1;rounded=0;exitX=0.5;exitY=0;exitDx=0;exitDy=0;entryX=0;entryY=0;entryDx=0;entryDy=0;" edge="1" parent="1" source="mjfKpfiPbVF0Odg-zGbk-34" target="mjfKpfiPbVF0Odg-zGbk-35">
          <mxGeometry width="50" height="50" relative="1" as="geometry">
            <mxPoint x="630" y="60" as="sourcePoint" />
            <mxPoint x="680" y="10" as="targetPoint" />
          </mxGeometry>
        </mxCell>
        <mxCell id="mjfKpfiPbVF0Odg-zGbk-37" value="否" style="endArrow=classic;html=1;rounded=0;exitX=0.5;exitY=1;exitDx=0;exitDy=0;entryX=0;entryY=0;entryDx=0;entryDy=0;" edge="1" parent="1" source="mjfKpfiPbVF0Odg-zGbk-34" target="mjfKpfiPbVF0Odg-zGbk-32">
          <mxGeometry width="50" height="50" relative="1" as="geometry">
            <mxPoint x="620" y="140" as="sourcePoint" />
            <mxPoint x="670" y="90" as="targetPoint" />
          </mxGeometry>
        </mxCell>
      </root>
    </mxGraphModel>
  </diagram>
</mxfile>
